<?xml version="1.0" standalone="no"?>
<!DOCTYPE svg PUBLIC "-//W3C//DTD SVG 20010904//EN"
 "http://www.w3.org/TR/2001/REC-SVG-20010904/DTD/svg10.dtd">
<svg version="1.0" xmlns="http://www.w3.org/2000/svg"
 width="1024.000000pt" height="1024.000000pt" viewBox="0 0 1024.000000 1024.000000"
 preserveAspectRatio="xMidYMid meet">

<g transform="translate(0.000000,1024.000000) scale(0.100000,-0.100000)"
fill="#000000" stroke="none">
<path d="M5086 7508 c-3 -18 -10 -152 -16 -298 -6 -146 -13 -270 -15 -276 -2
-7 -56 -44 -119 -84 l-116 -71 0 -100 c0 -54 4 -99 9 -99 5 0 69 32 143 71
l133 72 137 -72 c75 -39 139 -71 143 -71 3 0 5 44 3 97 l-3 98 -91 60 c-49 33
-100 67 -112 76 -21 15 -22 26 -33 290 -13 330 -14 339 -39 339 -14 0 -21 -9
-24 -32z"/>
<path d="M5310 6920 c54 -42 119 -69 220 -90 363 -76 741 -309 998 -615 404
-482 523 -1118 326 -1750 -37 -120 -158 -358 -241 -475 -99 -139 -313 -348
-445 -435 -85 -56 -112 -80 -136 -120 -17 -27 -29 -52 -27 -54 9 -8 160 86
263 163 403 302 663 752 732 1266 17 123 14 395 -5 522 -66 443 -286 840 -635
1146 -259 227 -621 397 -940 442 -41 6 -88 13 -105 15 l-30 5 25 -20z"/>
<path d="M4840 6923 c-442 -72 -849 -294 -1131 -616 -247 -282 -400 -620 -455
-997 -24 -168 -15 -460 20 -625 81 -385 251 -701 517 -962 195 -191 381 -316
629 -421 185 -79 478 -141 664 -142 l88 0 -58 31 c-280 147 -425 456 -358 762
9 40 36 115 61 167 39 81 58 107 132 180 67 66 107 95 174 129 l87 45 0 618
c0 425 3 618 10 618 6 0 24 -7 40 -15 l30 -16 2 -207 c1 -114 1 -279 -1 -367
-2 -88 0 -260 4 -382 l7 -222 92 6 c66 4 115 1 176 -11 83 -17 217 -71 252
-103 17 -15 18 12 18 574 0 461 -3 593 -12 600 -7 6 -103 50 -213 98 -110 48
-267 117 -349 153 -82 36 -157 65 -165 64 -14 -1 -337 -133 -618 -252 l-103
-44 -1 -350 c-1 -193 -1 -685 0 -1092 2 -422 -1 -744 -6 -747 -10 -6 -178 87
-275 153 -250 169 -457 404 -592 670 -184 363 -242 746 -176 1145 95 566 471
1070 985 1321 140 68 269 115 383 139 49 10 93 28 137 56 36 22 65 43 65 45 0
4 -22 3 -60 -3z m143 -1693 c-5 -4 -23 -12 -41 -18 l-32 -11 2 226 3 226 35
12 35 12 3 -220 c1 -122 -1 -224 -5 -227z m542 335 c197 -75 210 -81 213 -110
7 -57 2 -57 -170 10 l-163 63 -3 43 c-3 37 -1 41 15 35 10 -4 59 -23 108 -41z
m-745 -184 l0 -219 -31 -11 c-18 -6 -36 -11 -40 -11 -5 0 -9 98 -9 219 l0 218
33 11 c17 5 35 10 40 11 4 1 7 -98 7 -218z m-200 -19 c0 -86 -3 -183 -7 -214
-5 -52 -8 -58 -36 -67 -16 -6 -34 -11 -39 -11 -4 0 -7 97 -6 217 l3 216 35 12
c19 7 38 10 42 8 4 -2 8 -75 8 -161z m955 22 c66 -25 139 -53 163 -62 39 -15
42 -19 42 -54 0 -21 -3 -38 -7 -38 -5 0 -81 28 -170 62 l-163 62 0 38 c0 21 4
38 8 38 4 0 62 -21 127 -46z m45 -192 c147 -54 155 -58 158 -85 7 -59 3 -59
-170 8 l-163 63 -3 36 c-2 25 1 36 10 36 7 -1 83 -27 168 -58z m-590 -436 c0
-360 6 -323 -60 -342 -20 -5 -20 -1 -20 319 l0 324 33 11 c17 5 35 10 40 11 4
1 7 -145 7 -323z m708 217 c40 -15 42 -18 42 -55 0 -46 18 -48 -180 24 -74 27
-141 51 -147 53 -8 3 -13 21 -13 44 l0 40 128 -45 c70 -25 146 -52 170 -61z
m-918 -281 l0 -318 -40 -11 -40 -10 0 319 0 319 23 9 c60 24 57 41 57 -308z
m-200 -56 c0 -173 -3 -317 -8 -320 -4 -2 -24 -7 -45 -11 l-37 -7 0 314 0 315
33 11 c17 5 38 10 45 11 9 1 12 -68 12 -313z m995 206 l160 -57 3 -37 c2 -21
0 -38 -5 -38 -4 0 -81 25 -170 56 l-163 57 0 38 c0 22 3 39 8 38 4 0 79 -26
167 -57z"/>
<path d="M5465 6781 c-7 -13 -3 -14 82 -36 93 -23 220 -70 328 -120 53 -24 95
-39 93 -32 -7 22 -162 95 -298 140 -162 54 -196 62 -205 48z"/>
<path d="M4671 6764 c-43 -18 -34 -28 18 -19 25 4 41 12 41 21 0 18 -16 17
-59 -2z"/>
<path d="M4436 6685 c-188 -76 -372 -198 -537 -353 -119 -112 -289 -339 -240
-320 4 2 42 48 83 103 187 248 468 457 766 569 69 26 92 46 55 46 -10 0 -67
-20 -127 -45z"/>
<path d="M4860 6504 l-235 -124 -3 -300 c-2 -218 0 -300 8 -300 6 0 116 45
244 100 l232 100 165 -74 c90 -40 199 -90 242 -110 l77 -36 -2 312 -3 311
-235 123 c-129 68 -239 123 -245 123 -5 0 -116 -56 -245 -125z m490 -114 c140
-70 140 -70 140 -105 0 -19 -2 -35 -5 -35 -3 0 -68 30 -145 67 l-140 66 0 39
c0 21 2 38 5 38 3 0 68 -32 145 -70z m-350 -144 l0 -184 -92 -40 c-51 -23
-110 -48 -130 -57 l-38 -15 0 178 0 178 118 62 c64 33 123 61 130 62 9 0 12
-43 12 -184z m347 -21 c136 -64 138 -65 141 -100 2 -21 -1 -35 -8 -35 -6 0
-71 28 -145 62 l-135 62 0 38 c0 21 2 38 5 38 2 0 66 -29 142 -65z m-2 -164
c70 -33 132 -64 137 -69 11 -11 7 -62 -5 -64 -5 -1 -69 25 -143 58 l-134 59 0
38 c0 20 4 37 8 37 5 0 66 -27 137 -59z"/>
<path d="M6006 6572 c-2 -4 21 -26 51 -47 145 -103 216 -161 300 -242 286
-279 490 -719 510 -1100 3 -58 10 -103 16 -103 15 0 1 199 -23 323 -51 260
-181 542 -343 742 -103 128 -276 288 -402 372 -79 53 -103 65 -109 55z"/>
<path d="M3576 5914 c-10 -26 5 -39 21 -19 7 11 13 22 13 27 0 15 -28 8 -34
-8z"/>
<path d="M3376 5333 c-12 -12 -6 -33 9 -33 8 0 15 6 15 14 0 17 -14 28 -24 19z"/>
<path d="M3363 4988 c13 -374 122 -685 349 -993 78 -104 280 -301 388 -377
109 -77 208 -133 218 -123 9 9 -31 41 -88 70 -25 13 -76 46 -114 74 -81 58
-286 239 -286 251 0 5 -9 12 -20 15 -11 3 -20 11 -20 17 0 5 -34 57 -76 116
-85 117 -167 265 -214 387 -17 44 -35 89 -39 100 -38 86 -82 364 -82 518 1 80
-3 117 -11 117 -8 0 -9 -48 -5 -172z"/>
<path d="M6867 4944 c-9 -9 4 -35 14 -28 5 3 9 12 9 20 0 14 -12 19 -23 8z"/>
<path d="M5290 4404 c-211 -57 -370 -206 -437 -408 -22 -68 -26 -99 -26 -191
0 -93 4 -122 27 -190 87 -255 314 -415 585 -415 105 0 191 20 274 61 163 83
278 221 323 390 40 150 11 335 -73 478 -74 124 -227 239 -369 276 -73 19 -231
19 -304 -1z m110 -175 l0 -112 -60 6 c-33 4 -72 10 -85 13 l-25 6 27 51 c29
53 114 147 132 147 7 0 11 -39 11 -111z m138 72 c51 -54 108 -149 95 -162 -5
-5 -43 -11 -83 -12 l-74 -2 -3 95 c-4 137 2 145 65 81z m-340 -68 c-23 -38
-43 -69 -44 -71 -1 -2 -20 5 -43 14 -36 14 -40 19 -29 32 18 21 128 92 144 92
8 0 -3 -26 -28 -67z m533 24 c34 -23 64 -48 67 -55 3 -11 -65 -48 -74 -39 -8
7 -84 128 -84 132 0 15 36 0 91 -38z m-656 -146 c31 -12 49 -25 46 -33 -2 -7
-13 -62 -25 -121 l-21 -108 -85 3 -85 3 3 35 c8 77 80 240 107 240 5 0 33 -9
60 -19z m833 -41 c36 -60 50 -101 59 -172 l6 -48 -86 0 c-82 0 -87 1 -91 23
-2 12 -13 63 -23 112 -10 50 -18 94 -18 99 0 11 85 46 105 43 8 -1 30 -27 48
-57z m-568 -19 l55 -6 3 -97 3 -98 -122 0 -122 0 6 58 c4 31 14 81 22 110 l16
54 42 -8 c23 -4 67 -10 97 -13z m352 -45 c10 -31 20 -79 24 -106 l7 -50 -120
0 -120 0 -6 92 c-3 50 -4 95 -1 100 3 4 26 8 52 9 26 0 65 4 87 8 22 5 44 8
50 7 5 -2 17 -28 27 -60z m-600 -331 c28 -153 30 -143 -24 -167 -26 -11 -54
-18 -62 -15 -34 13 -118 249 -100 279 3 5 42 7 87 6 l81 -3 18 -100z m306 5
l3 -96 -97 -12 c-54 -7 -101 -9 -105 -5 -13 14 -39 129 -39 172 l0 42 118 -3
117 -3 3 -95z m312 90 c12 -7 13 -19 3 -77 -7 -38 -19 -85 -27 -104 l-15 -36
-48 8 c-26 5 -69 11 -95 14 l-48 6 0 94 c0 65 4 95 13 98 22 9 202 7 217 -3z
m260 -34 c0 -49 -35 -154 -69 -208 -17 -27 -33 -48 -36 -48 -5 0 -106 49 -113
55 -1 1 7 37 18 80 11 43 20 92 20 110 0 17 3 35 7 38 3 4 44 7 90 7 l83 0 0
-34z m-572 -335 c1 -58 -2 -109 -7 -114 -13 -13 -100 79 -135 142 -31 57 -28
61 53 71 91 12 86 18 89 -99z m184 94 c26 -3 50 -10 52 -14 9 -14 -62 -124
-106 -166 l-42 -40 -7 25 c-9 32 -11 195 -3 203 4 3 18 4 33 2 14 -2 47 -7 73
-10z m-389 -105 c23 -43 33 -70 25 -70 -16 0 -148 89 -148 100 0 7 64 38 80
39 3 1 22 -31 43 -69z m577 54 c22 -9 40 -19 40 -23 -1 -17 -170 -122 -170
-105 0 8 80 144 85 144 3 0 23 -7 45 -16z"/>
<path d="M6701 4306 c-23 -51 -78 -149 -122 -217 -43 -67 -79 -126 -79 -131 0
-4 -6 -8 -13 -8 -8 0 -20 -12 -28 -26 -20 -37 -171 -179 -266 -249 -70 -52
-108 -95 -84 -95 14 0 216 169 278 232 68 68 135 153 212 263 54 78 161 284
161 309 0 36 -19 11 -59 -78z"/>
</g>
</svg>
